<svg width="40" height="40" viewBox="0 0 40 40" fill="none" xmlns="http://www.w3.org/2000/svg">
  <defs>
    <linearGradient id="logoGradient" x1="0%" y1="0%" x2="100%" y2="100%">
      <stop offset="0%" style="stop-color:#1e40af;stop-opacity:1" />
      <stop offset="50%" style="stop-color:#3b82f6;stop-opacity:1" />
      <stop offset="100%" style="stop-color:#60a5fa;stop-opacity:1" />
    </linearGradient>
    <filter id="shadow" x="-20%" y="-20%" width="140%" height="140%">
      <feDropShadow dx="0" dy="2" stdDeviation="3" flood-color="#1e40af" flood-opacity="0.3"/>
    </filter>
  </defs>
  
  <!-- Background circle -->
  <circle cx="20" cy="20" r="18" fill="url(#logoGradient)" filter="url(#shadow)"/>
  
  <!-- Brain/Network icon representing AI and assessment -->
  <g transform="translate(8, 8)">
    <!-- Main brain shape -->
    <path d="M12 4C8 4 6 6 6 10C6 12 7 14 8 15C7 16 6 18 6 20C6 22 7 24 10 24C11 24 12 23 12 22C12 23 13 24 14 24C17 24 18 22 18 20C18 18 17 16 16 15C17 14 18 12 18 10C18 6 16 4 12 4Z" 
          fill="white" 
          opacity="0.9"/>
    
    <!-- Neural network connections -->
    <circle cx="8" cy="10" r="1.5" fill="white"/>
    <circle cx="12" cy="8" r="1.5" fill="white"/>
    <circle cx="16" cy="10" r="1.5" fill="white"/>
    <circle cx="10" cy="14" r="1.5" fill="white"/>
    <circle cx="14" cy="14" r="1.5" fill="white"/>
    <circle cx="8" cy="18" r="1.5" fill="white"/>
    <circle cx="12" cy="20" r="1.5" fill="white"/>
    <circle cx="16" cy="18" r="1.5" fill="white"/>
    
    <!-- Connection lines -->
    <path d="M8 10L12 8L16 10" stroke="white" stroke-width="0.8" opacity="0.7"/>
    <path d="M12 8L10 14L14 14" stroke="white" stroke-width="0.8" opacity="0.7"/>
    <path d="M10 14L8 18L12 20" stroke="white" stroke-width="0.8" opacity="0.7"/>
    <path d="M14 14L16 18L12 20" stroke="white" stroke-width="0.8" opacity="0.7"/>
  </g>
  
  <!-- Subtle accent dot -->
  <circle cx="30" cy="10" r="2" fill="#60a5fa" opacity="0.6"/>
</svg>

