<svg width="40" height="40" viewBox="0 0 40 40" fill="none" xmlns="http://www.w3.org/2000/svg">
  <defs>
    <!-- Microsoft Blue Gradient matching the design system -->
    <linearGradient id="fitfindGradient" x1="0%" y1="0%" x2="100%" y2="100%">
      <stop offset="0%" style="stop-color:#0078d4;stop-opacity:1" />
      <stop offset="50%" style="stop-color:#106ebe;stop-opacity:1" />
      <stop offset="100%" style="stop-color:#005a9e;stop-opacity:1" />
    </linearGradient>
    
    <!-- Secondary gradient for accent elements -->
    <linearGradient id="accentGradient" x1="0%" y1="0%" x2="100%" y2="100%">
      <stop offset="0%" style="stop-color:#60a5fa;stop-opacity:1" />
      <stop offset="100%" style="stop-color:#3b82f6;stop-opacity:1" />
    </linearGradient>
    
    <!-- Shadow filter for depth -->
    <filter id="logoShadow" x="-20%" y="-20%" width="140%" height="140%">
      <feDropShadow dx="0" dy="2" stdDeviation="3" flood-color="#0078d4" flood-opacity="0.25"/>
    </filter>
    
    <!-- Glow effect for modern look -->
    <filter id="logoGlow" x="-50%" y="-50%" width="200%" height="200%">
      <feGaussianBlur stdDeviation="2" result="coloredBlur"/>
      <feMerge> 
        <feMergeNode in="coloredBlur"/>
        <feMergeNode in="SourceGraphic"/>
      </feMerge>
    </filter>
  </defs>
  
  <!-- Background circle with Microsoft Blue -->
  <circle cx="20" cy="20" r="18" fill="url(#fitfindGradient)" filter="url(#logoShadow)"/>
  
  <!-- Main "F" letter representing "Fit" -->
  <g transform="translate(8, 6)">
    <!-- Vertical line of F -->
    <rect x="2" y="2" width="3" height="20" fill="white" rx="1.5"/>
    <!-- Top horizontal line of F -->
    <rect x="2" y="2" width="16" height="3" fill="white" rx="1.5"/>
    <!-- Middle horizontal line of F -->
    <rect x="2" y="10" width="12" height="3" fill="white" rx="1.5"/>
  </g>
  
  <!-- Search/Magnifying glass representing "Find" -->
  <g transform="translate(18, 18)">
    <!-- Magnifying glass circle -->
    <circle cx="6" cy="6" r="5" fill="none" stroke="white" stroke-width="2.5" opacity="0.9"/>
    <!-- Magnifying glass handle -->
    <line x1="10" y1="10" x2="14" y2="14" stroke="white" stroke-width="2.5" stroke-linecap="round" opacity="0.9"/>
  </g>
  
  <!-- Fitness/Health icon - dumbbell -->
  <g transform="translate(6, 22)">
    <!-- Dumbbell bars -->
    <rect x="2" y="6" width="2" height="8" fill="white" rx="1" opacity="0.8"/>
    <rect x="20" y="6" width="2" height="8" fill="white" rx="1" opacity="0.8"/>
    <!-- Dumbbell center bar -->
    <rect x="4" y="8" width="16" height="4" fill="white" rx="2" opacity="0.8"/>
  </g>
  
  <!-- Assessment/Chart icon - representing personality tests -->
  <g transform="translate(24, 6)">
    <!-- Chart bars -->
    <rect x="2" y="12" width="2" height="6" fill="url(#accentGradient)" rx="1"/>
    <rect x="5" y="8" width="2" height="10" fill="url(#accentGradient)" rx="1"/>
    <rect x="8" y="6" width="2" height="12" fill="url(#accentGradient)" rx="1"/>
    <rect x="11" y="10" width="2" height="8" fill="url(#accentGradient)" rx="1"/>
  </g>
  
  <!-- Subtle accent dots for modern touch -->
  <circle cx="30" cy="10" r="1.5" fill="url(#accentGradient)" opacity="0.7"/>
  <circle cx="10" cy="30" r="1" fill="url(#accentGradient)" opacity="0.6"/>
  
  <!-- Connection lines showing the relationship between fitness, finding, and assessment -->
  <path d="M12 20L18 18" stroke="white" stroke-width="1" opacity="0.4" stroke-linecap="round"/>
  <path d="M18 18L24 16" stroke="white" stroke-width="1" opacity="0.4" stroke-linecap="round"/>
</svg>